{"title":"South.Park.S19.720p.BluRay.x264-MAYHEM [Season 19 Nineteen]","uid":15599823,"size":5180938440,"categoryP":"video","categoryS":"hd___tv_shows","magnet":"?xt=urn:btih:ed45f440edbc5ace281d26c344cb65a020a737d6&amp;dn=South.Park.S19.720p.BluRay.x264-MAYHEM+%5BSeason+19+Nineteen%5D&amp;tr=udp%3A%2F%2Ftracker.leechers-paradise.org%3A6969&amp;tr=udp%3A%2F%2Fzer0day.ch%3A1337&amp;tr=udp%3A%2F%2Fopen.demonii.com%3A1337&amp;tr=udp%3A%2F%2Ftracker.coppersurfer.tk%3A6969&amp;tr=udp%3A%2F%2Fexodus.desync.com%3A6969","seeders":9,"leechers":3,"uploader":"GoodFilms","files":30,"time":1471618545,"description":"http://imdb.com/title/tt0121955/\r\n\r\nVideo\r\nID                                       : 1\r\nFormat                                   : AVC\r\nFormat/Info                              : Advanced Video Codec\r\nFormat profile                           :   \r\nFormat settings, CABAC                   : Yes\r\nFormat settings, ReFrames                : 5 frames\r\nCodec ID                                 : V_MPEG4/ISO/AVC\r\nDuration                                 : 22mn 23s\r\nBit rate                                 : 2 621 Kbps\r\nWidth                                    : 1 280 pixels\r\nHeight                                   : 720 pixels\r\nDisplay aspect ratio                     : 16:9\r\nFrame rate mode                          : Constant\r\nFrame rate                               : 23.976 (24000/1001) fps\r\nColor space                              : YUV\r\nChroma subsampling                       : 4:2:0\r\nBit depth                                : 8 bits\r\nScan type                                : Progressive\r\nBits/(Pixel*Frame)                       : 0.119\r\nStream size                              : 420 MiB (85%)\r\nWriting library                          : x264 core 148 r2705 3f5ed56\r\nLanguage                                 : English\r\nDefault                                  : Yes\r\nForced                                   : No\r\n\r\nAudio\r\nID                                       : 2\r\nFormat                                   : AC-3\r\nFormat/Info                              : Audio Coding 3\r\nMode extension                           : CM (complete main)\r\nFormat settings, Endianness              : Big\r\nCodec ID                                 : A_AC3\r\nDuration                                 : 22mn 22s\r\nBit rate mode                            : Constant\r\nBit rate                                 : 448 Kbps\r\nChannel(s)                               : 6 channels\r\nChannel positions                        : Front: L C R, Side: L R, LFE\r\nSampling rate                            : 48.0 KHz\r\nFrame rate                               : 31.250 fps (1536 spf)\r\nCompression mode                         : Lossy\r\nStream size                              : 71.7 MiB (15%)\r\nLanguage                                 : English\r\nDefault                                  : Yes\r\nForced                                   : No\r\n\r\nMenu\r\n00:00:00.000                             : en:00:00:00.000\r\n00:00:33.659                             : en:00:00:33.659\r\n00:10:06.105                             : en:00:10:06.105\r\n00:15:56.956                             : en:00:15:56.956\r\n00:21:50.309                             : en:00:21:50.309","torrent":{"xt":"urn:btih:ed45f440edbc5ace281d26c344cb65a020a737d6","amp;dn":"South.Park.S19.720p.BluRay.x264-MAYHEM+%5BSeason+19+Nineteen%5D","amp;tr":["udp%3A%2F%2Ftracker.leechers-paradise.org%3A6969","udp%3A%2F%2Fzer0day.ch%3A1337","udp%3A%2F%2Fopen.demonii.com%3A1337","udp%3A%2F%2Ftracker.coppersurfer.tk%3A6969","udp%3A%2F%2Fexodus.desync.com%3A6969"],"infoHash":"ed45f440edbc5ace281d26c344cb65a020a737d6","infoHashBuffer":{"type":"Buffer","data":[237,69,244,64,237,188,90,206,40,29,38,195,68,203,101,160,32,167,55,214]},"announce":[],"urlList":[]}}